<?xml version="1.0" standalone="no"?>
<!DOCTYPE svg PUBLIC "-//W3C//DTD SVG 20010904//EN"
 "http://www.w3.org/TR/2001/REC-SVG-20010904/DTD/svg10.dtd">
<svg version="1.0" xmlns="http://www.w3.org/2000/svg"
 width="192.000000pt" height="192.000000pt" viewBox="0 0 192.000000 192.000000"
 preserveAspectRatio="xMidYMid meet">

<g transform="translate(0.000000,192.000000) scale(0.100000,-0.100000)"
fill="#000000" stroke="none">
<path d="M875 1908 c-229 -24 -425 -117 -585 -278 -322 -321 -373 -806 -126
-1191 64 -99 202 -232 304 -293 92 -55 242 -110 347 -126 416 -67 833 158
1010 543 67 146 99 327 84 468 -27 252 -113 435 -284 604 -174 172 -357 252
-640 278 -16 2 -66 0 -110 -5z m-41 -429 c52 -45 79 -125 74 -214 -5 -76 -24
-123 -70 -171 l-30 -32 15 -308 c8 -169 11 -317 7 -329 -12 -32 -36 -47 -77
-47 -28 0 -43 7 -61 27 -26 31 -26 -12 -3 495 l8 165 -29 27 c-75 70 -95 217
-44 321 48 99 140 128 210 66z m276 -79 c0 -67 4 -110 10 -110 6 0 10 44 10
111 0 109 0 110 23 107 21 -3 22 -8 25 -110 4 -143 22 -141 22 2 l0 110 25 0
25 0 0 -110 c0 -74 4 -110 11 -110 8 0 10 34 7 110 -3 95 -1 110 12 110 35 0
40 -21 40 -179 l0 -155 -38 -41 -39 -40 16 -320 c11 -202 13 -330 8 -348 -6
-18 -23 -35 -43 -45 -31 -14 -37 -14 -69 1 -20 9 -40 28 -45 42 -7 17 -5 111
5 278 7 139 15 284 17 323 l3 72 -44 47 -43 47 4 146 c1 81 7 153 11 160 5 6
17 12 28 12 18 0 19 -8 19 -110z m328 -887 c-275 -275 -420 -413 -428 -408 -8
5 126 146 406 426 279 279 422 415 428 409 7 -7 -128 -149 -406 -427z m31 -39
c-227 -227 -417 -410 -422 -407 -5 3 179 194 409 424 231 231 421 414 423 408
2 -6 -182 -197 -410 -425z"/>
</g>
</svg>
